<!DOCTYPE svg PUBLIC "-//W3C//DTD SVG 1.1//EN" "http://www.w3.org/Graphics/SVG/1.1/DTD/svg11.dtd">
<!-- Uploaded to: SVG Repo, www.svgrepo.com, Transformed by: SVG Repo Mixer Tools -->
<svg version="1.1" id="Layer_1" xmlns="http://www.w3.org/2000/svg" xmlns:xlink="http://www.w3.org/1999/xlink" viewBox="0 0 512 512" xml:space="preserve" width="76px" height="76px" fill="#000000">
<g id="SVGRepo_bgCarrier" stroke-width="0"/>
<g id="SVGRepo_tracerCarrier" stroke-linecap="round" stroke-linejoin="round"/>
<g id="SVGRepo_iconCarrier"> <circle style="fill:#3495df;" cx="256" cy="256" r="256"/> <path style="opacity:0.1;enable-background:new ;" d="M399.872,111.851L399.872,111.851L399.872,111.851 c-1.664-1.547-3.925-2.501-6.432-2.501H118.56c-5.12,0-9.227,3.947-9.227,8.8v166.347c0,2.389,1.003,4.56,2.629,6.144l0,0 l0.005,0.005c0.037,0.037,0.069,0.069,0.101,0.107l36.464,36.464h-35.845c-1.867,0-3.36,1.493-3.36,3.36v68.693 c0,1.061,0.517,1.984,1.275,2.613l107.28,107.28C230.32,511.019,243.045,512,256,512c141.387,0,256-114.619,256-256 c0-11.669-0.853-23.131-2.363-34.379L400.101,112.085C400.021,112.005,399.952,111.925,399.872,111.851z"/> <rect x="207.136" y="293.317" style="fill:#3A556A;" width="97.728" height="20.165"/> <polygon style="fill:#bfc2c4;" points="304.864,313.483 207.136,313.483 304.864,293.317 "/> <rect x="186.219" y="313.483" style="fill:#45545f;" width="139.573" height="13.739"/> <path style="fill:#EBF0F3;" d="M393.451,109.333H118.549c-5.093,0-9.216,3.952-9.216,8.827v166.325c0,4.875,4.128,8.827,9.216,8.827 h274.901c5.088,0,9.216-3.952,9.216-8.827V118.16C402.667,113.285,398.539,109.333,393.451,109.333z"/> <g> <rect x="125.333" y="124.656" style="fill:#bfc2c4;" width="261.333" height="129.067"/> <ellipse style="fill:#bfc2c4;" cx="256" cy="271.499" rx="11.467" ry="10.981"/> <path style="fill:#bfc2c4;" d="M399.285,327.216H112.715c-1.867,0-3.381,1.515-3.381,3.381v68.688c0,1.867,1.515,3.381,3.381,3.381 h286.571c1.867,0,3.381-1.515,3.381-3.381v-68.688C402.667,328.731,401.152,327.216,399.285,327.216z"/> </g> <rect x="124.437" y="344.267" style="fill:#3A556A;" width="105.067" height="25.408"/> <g> <rect x="216.779" y="376.213" style="fill:#EBF0F3;" width="12.725" height="4.608"/> <circle style="fill:#EBF0F3;" cx="262.827" cy="361.493" r="11.979"/> </g> <circle style="fill:#bfc2c4;" cx="262.827" cy="361.493" r="5.387"/> <g> <rect x="297.141" y="337.867" style="fill:#3A556A;" width="5.173" height="54.192"/> <rect x="314.171" y="337.867" style="fill:#3A556A;" width="5.173" height="54.192"/> <rect x="331.2" y="337.867" style="fill:#3A556A;" width="5.173" height="54.192"/> <rect x="348.213" y="337.867" style="fill:#3A556A;" width="5.173" height="54.192"/> <rect x="365.227" y="337.867" style="fill:#3A556A;" width="5.173" height="54.192"/> <rect x="382.293" y="337.867" style="fill:#3A556A;" width="5.173" height="54.192"/> </g> </g>
</svg>